{"title":"I Don't Know How She  2011 R5 XviD AC3 - MiSTERE","uid":6753722,"size":1610458836,"categoryP":"video","categoryS":"movies","magnet":"?xt=urn:btih:408fe4e0dba9a74b0b94e51deb18ff800346dc4a&amp;dn=I+Don%5C%27t+Know+How+She++2011+R5+XviD+AC3+-+MiSTERE&amp;tr=udp%3A%2F%2Ftracker.openbittorrent.com%3A80&amp;tr=udp%3A%2F%2Fopen.demonii.com%3A1337&amp;tr=udp%3A%2F%2Ftracker.coppersurfer.tk%3A6969&amp;tr=udp%3A%2F%2Fexodus.desync.com%3A6969","seeders":1,"leechers":1,"uploader":"HeroMaster","files":-1,"time":1318962801,"description":"I Don't Know How She Does It 2011 R5 XviD AC3 - MiSTERE\n\n &lt;a href=&quot;\nhttp://www.imdb.com/title/tt1742650/&quot; rel=&quot;nofollow&quot; target=&quot;_NEW&quot;&gt;\nhttp://www.imdb.com/title/tt1742650/&lt;/a&gt;\n\nVideo\nID : 0\nFormat : MPEG-4 Visual\nFormat profile : Advanced Simple@L5\nFormat settings, BVOP : 2\nFormat settings, QPel : No\nFormat settings, GMC : No warppoints\nFormat settings, Matrix : Default (H.263)\nMuxing mode : Packed bitstream\nCodec ID : XVID\nCodec ID/Hint : XviD\nDuration : 1h 25mn\nBit rate : 2 018 Kbps\nWidth : 720 pixels\nHeight : 384 pixels\nDisplay aspect ratio : 1.875\nFrame rate : 25.000 fps\nColor space : YUV\nChroma subsampling : 4:2:0\nBit depth : 8 bits\nScan type : Progressive\nCompression mode : Lossy\nBits/(Pixel*Frame) : 0.292\nStream size : 1.21 GiB (82%)\nWriting library : XviD 64\n\nAudio\nID : 1\nFormat : AC-3\nFormat/Info : Audio Coding 3\nMode extension : CM (complete main)\nCodec ID : 2000\nDuration : 1h 25mn\nBit rate mode : Constant\nBit rate : 448 Kbps\nChannel(s) : 6 channels\nChannel positions : Front: L C R, Side: L R, LFE\nSampling rate : 48.0 KHz\nBit depth : 16 bits\nCompression mode : Lossy\nStream size : 275 MiB (18%)\nAlignment : Aligned on interleaves\nInterleave, duration : 40 ms (1.00 video frame)\n\n\nThanks to RELiZLABS for the source files\nResized sharpened and adjusted RGB\n\n\nPoster:\n\n &lt;a href=&quot;\nhttp://shareimage.org/images/ohf1islgwzs3w5v0licw.jpg&quot; rel=&quot;nofollow&quot; target=&quot;_NEW&quot;&gt;\nhttp://shareimage.org/images/ohf1islgwzs3w5v0licw.jpg&lt;/a&gt;\n\n\nScreens:\n\n &lt;a href=&quot;\nhttp://shareimage.org/images/sx67ek7opuqadjp3qn.png&quot; rel=&quot;nofollow&quot; target=&quot;_NEW&quot;&gt;\nhttp://shareimage.org/images/sx67ek7opuqadjp3qn.png&lt;/a&gt;\n &lt;a href=&quot;\nhttp://shareimage.org/images/ujnn6a9qi8mt58wssvdh.png&quot; rel=&quot;nofollow&quot; target=&quot;_NEW&quot;&gt;\nhttp://shareimage.org/images/ujnn6a9qi8mt58wssvdh.png&lt;/a&gt;\n\n\nENJOY!","torrent":{"xt":"urn:btih:408fe4e0dba9a74b0b94e51deb18ff800346dc4a","amp;dn":"I+Don%5C%27t+Know+How+She++2011+R5+XviD+AC3+-+MiSTERE","amp;tr":["udp%3A%2F%2Ftracker.openbittorrent.com%3A80","udp%3A%2F%2Fopen.demonii.com%3A1337","udp%3A%2F%2Ftracker.coppersurfer.tk%3A6969","udp%3A%2F%2Fexodus.desync.com%3A6969"],"infoHash":"408fe4e0dba9a74b0b94e51deb18ff800346dc4a","infoHashBuffer":{"type":"Buffer","data":[64,143,228,224,219,169,167,75,11,148,229,29,235,24,255,128,3,70,220,74]},"announce":[],"urlList":[]}}